<mxfile host="app.diagrams.net" modified="2023-05-18T14:48:24.906Z" agent="Mozilla/5.0 (Macintosh; Intel Mac OS X 10_15_7) AppleWebKit/605.1.15 (KHTML, like Gecko) Version/16.3 Safari/605.1.15" version="21.3.0" etag="TG3jremzgzigsRISKnVd" type="github">
  <diagram name="Seite-1" id="oNIL5KCkV83gJEhvQkhV">
    <mxGraphModel>
      <root>
        <mxCell id="0" />
        <mxCell id="1" parent="0" />
      </root>
    </mxGraphModel>
  </diagram>
</mxfile>
